<svg
  width="16"
  height="16"
  viewBox="0 0 16 16"
  fill="none"
  xmlns="http://www.w3.org/2000/svg"
>
<path
    d="M12.971 4.52197C12.971 4.52197 12.9423 4.54266 12.9119 4.534C12.8851 4.52634 12.8716 4.50624 12.8716 4.50624C12.8716 4.50624 12.0348 3.19512 11.5044 2.49063C11.1785 2.05778 10.144 0.909309 10.144 0.909309C10.144 0.909309 9.78889 0.56787 9.87196 0.528369C10.0242 0.455992 10.306 0.556619 10.4388 0.62055C11.7914 1.27182 14.5804 2.66121 14.5804 3.04549C14.5804 3.56644 12.971 4.52197 12.971 4.52197Z"
    fill="black"
  />
<path
    d="M3.0469 4.52197C3.0469 4.52197 3.07554 4.54266 3.10593 4.534C3.1328 4.52634 3.1463 4.50624 3.1463 4.50624C3.1463 4.50624 3.98304 3.19512 4.51346 2.49063C4.83935 2.05778 5.87383 0.909309 5.87383 0.909309C5.87383 0.909309 6.22897 0.56787 6.1459 0.528369C5.9937 0.455992 5.71186 0.556619 5.57908 0.62055C4.22642 1.27182 1.4375 2.66121 1.4375 3.04549C1.4375 3.56644 3.0469 4.52197 3.0469 4.52197Z"
    fill="black"
  />
<path
    d="M3.42705 12.807V13.447L2.86248 13.6853C2.20382 13.9645 2.11791 14.0394 2.11791 14.3458C2.11791 14.6931 2.35928 14.8939 2.77248 14.8939C2.97294 14.8905 3.07522 14.8565 3.77479 14.5603C4.39254 14.2981 4.57254 14.2062 4.64618 14.1143C4.7321 14.0019 4.73619 13.9747 4.73619 13.0861C4.73619 13.0861 4.74238 12.4797 4.61274 12.3179C4.4831 12.1561 4.08162 12.1703 4.08162 12.1703C4.08162 12.1703 3.70527 12.1561 3.57564 12.3179C3.446 12.4797 3.42705 12.807 3.42705 12.807Z"
    fill="black"
  />
<path
    d="M12.5979 12.8043V13.4444L13.1625 13.6827C13.8212 13.9619 13.9071 14.0368 13.9071 14.3432C13.9071 14.6904 13.6657 14.8913 13.2525 14.8913C13.052 14.8879 12.9498 14.8538 12.2502 14.5577C11.6324 14.2955 11.4524 14.2036 11.3788 14.1117C11.2929 13.9993 11.2888 13.9721 11.2888 13.0835C11.2888 13.0835 11.2826 12.4771 11.4122 12.3153C11.5419 12.1534 11.9434 12.1677 11.9434 12.1677C11.9434 12.1677 12.3197 12.1534 12.4493 12.3153C12.579 12.4771 12.5979 12.8043 12.5979 12.8043Z"
    fill="black"
  />
<path
    d="M6.0455 13.1306V14.0907L5.41548 14.6218C4.89182 15.0576 4.77727 15.1734 4.74045 15.2925C4.60545 15.7079 5.06774 16.0926 5.56685 15.9802C5.71004 15.9496 5.85731 15.844 6.48734 15.3266C6.90053 14.9861 7.26464 14.6661 7.29737 14.615C7.34237 14.5401 7.35464 14.2984 7.35464 13.3451C7.35464 13.3451 7.33533 12.48 7.2057 12.3181C7.07606 12.1563 6.70007 12.1706 6.70007 12.1706C6.70007 12.1706 6.29823 12.1706 6.16859 12.3181C6.03895 12.4657 6.0455 13.1306 6.0455 13.1306Z"
    fill="black"
  />
<path
    d="M9.97947 13.1274V14.0874L10.6095 14.6185C11.1331 15.0543 11.2477 15.1701 11.2845 15.2892C11.4195 15.7046 10.9572 16.0893 10.4581 15.9769C10.3149 15.9463 10.1677 15.8407 9.53763 15.3233C9.12444 14.9828 8.76033 14.6628 8.7276 14.6117C8.6826 14.5368 8.67033 14.2951 8.67033 13.3418C8.67033 13.3418 8.68964 12.4767 8.81928 12.3149C8.94892 12.153 9.3249 12.1673 9.3249 12.1673C9.3249 12.1673 9.72674 12.1673 9.85638 12.3149C9.98602 12.4624 9.97947 13.1274 9.97947 13.1274Z"
    fill="black"
  />
<path
    fill-rule="evenodd"
    clip-rule="evenodd"
    d="M7.645 0.0714954C7.41999 0.183845 6.63451 0.840915 6.26222 1.22562C4.1329 3.42785 2.83173 6.52809 2.51308 10.1409C2.45874 10.7573 2.69416 10.9716 2.69416 10.9716C2.82379 11.1119 2.97936 11.209 3.12196 11.2629L3.12393 11.2637C3.26741 11.3179 3.57825 11.4355 4.13819 11.4358L8.00092 11.4391H11.8725C11.8725 11.4391 12.5423 11.441 12.8966 11.2737L12.8999 11.2721C13.0857 11.1844 13.1956 11.1326 13.3245 10.9824C13.4541 10.8314 13.5451 10.5783 13.5034 10.1409C13.4754 9.8481 13.4413 9.54353 13.4052 9.27729C12.9225 5.64808 11.3965 2.58743 9.09733 0.623025C8.47958 0.0919218 8.32003 0 8.0132 0C7.85365 0 7.74319 0.0204274 7.645 0.0714954ZM6.00736 8.3608C6.00736 8.9864 5.54303 9.49356 4.97026 9.49356C4.39748 9.49356 3.93316 8.9864 3.93316 8.3608C3.93316 7.73519 4.39748 7.22803 4.97026 7.22803C5.54303 7.22803 6.00736 7.73519 6.00736 8.3608ZM11.063 9.49356C11.6358 9.49356 12.1002 8.9864 12.1002 8.3608C12.1002 7.73519 11.6358 7.22803 11.063 7.22803C10.4903 7.22803 10.0259 7.73519 10.0259 8.3608C10.0259 8.9864 10.4903 9.49356 11.063 9.49356Z"
    fill="black"
  />
</svg>
